<?xml version="1.0" standalone="no"?>
<!DOCTYPE svg PUBLIC "-//W3C//DTD SVG 20010904//EN"
 "http://www.w3.org/TR/2001/REC-SVG-20010904/DTD/svg10.dtd">
<svg version="1.0" xmlns="http://www.w3.org/2000/svg"
 width="1280.000000pt" height="914.000000pt" viewBox="0 0 1280.000000 914.000000"
 preserveAspectRatio="xMidYMid meet">

<g transform="translate(0.000000,914.000000) scale(0.100000,-0.100000)"
fill="#000000" stroke="none">
<path d="M0 4570 l0 -4570 6400 0 6400 0 0 4570 0 4570 -6400 0 -6400 0 0
-4570z m2457 2656 c46 -39 165 -241 170 -291 8 -64 -6 -79 -99 -109 -46 -14
-89 -26 -95 -26 -7 0 -13 -10 -13 -23 0 -27 -32 -61 -72 -76 -36 -14 -85 1
-145 44 -26 19 -64 43 -83 54 -35 19 -38 19 -87 2 -83 -28 -172 -97 -240 -186
-40 -53 -65 -105 -92 -190 -13 -38 -37 -97 -54 -130 -38 -72 -139 -182 -208
-226 -27 -17 -48 -33 -46 -35 2 -2 27 -8 56 -14 76 -14 192 -74 277 -142 41
-32 74 -62 74 -67 0 -4 -21 -16 -47 -26 -64 -24 -109 -51 -161 -99 -59 -55
-77 -91 -21 -42 24 21 82 56 129 79 84 41 86 41 218 45 146 5 225 -8 329 -54
102 -45 243 -154 295 -227 l20 -28 -23 -25 c-29 -31 -79 -63 -128 -81 l-36
-13 45 6 c65 9 130 40 173 82 101 97 107 183 37 517 -44 208 -36 283 41 410
76 126 218 239 364 290 189 67 479 30 682 -86 135 -78 286 -226 299 -294 6
-34 -17 -92 -61 -150 -18 -24 -24 -53 -34 -152 -6 -66 -11 -127 -11 -135 0 -7
-18 -33 -41 -58 -66 -73 -69 -86 -43 -189 12 -49 25 -113 29 -143 8 -63 -1
-76 -62 -85 -47 -7 -53 -16 -53 -75 0 -36 -5 -51 -19 -59 -11 -7 -16 -20 -14
-30 4 -13 -5 -25 -30 -39 -22 -13 -41 -35 -50 -59 -21 -51 -79 -101 -118 -101
-37 0 -84 23 -125 62 l-31 29 -84 -32 c-118 -46 -387 -184 -494 -253 -409
-265 -677 -609 -789 -1013 -75 -272 -75 -610 0 -902 13 -52 22 -96 20 -98 -2
-3 -7 6 -11 19 -13 40 -112 274 -182 427 -104 226 -199 406 -276 521 -142 212
-167 281 -174 485 -8 196 17 296 98 391 31 36 31 37 4 14 -31 -26 -61 -59 -93
-100 l-20 -24 -20 46 c-69 151 -103 398 -68 498 8 24 13 46 11 49 -6 5 -65
-124 -65 -141 0 -26 -70 87 -97 156 -20 50 -29 64 -31 49 -3 -20 -10 -16 -60
38 -86 92 -192 237 -224 305 -33 71 -54 173 -66 322 -7 82 -15 120 -36 164
-37 80 -35 110 10 145 96 75 152 127 304 288 186 196 258 262 415 379 182 136
418 302 461 324 28 14 84 25 180 36 126 15 227 37 294 64 40 17 67 14 97 -12z
m686 -2322 c-673 -456 -939 -1133 -777 -1984 50 -263 159 -581 289 -839 l55
-111 4713 -2 4712 -3 3 -38 3 -37 -4698 0 -4699 0 -154 153 c-229 226 -367
384 -413 473 -9 18 -30 87 -47 154 -89 349 -103 705 -40 999 112 526 481 979
1010 1241 162 81 170 79 43 -6z m3352 -900 c111 -54 206 -176 261 -333 l24
-69 -88 -84 c-104 -101 -167 -158 -176 -158 -3 0 -16 21 -28 47 -27 58 -86
118 -122 125 -37 7 -94 -6 -125 -30 -88 -65 -129 -234 -118 -493 11 -256 72
-383 192 -397 79 -8 127 29 180 141 l18 38 31 -28 c17 -16 77 -71 133 -121
l101 -92 -12 -48 c-17 -65 -47 -129 -91 -197 -97 -152 -240 -221 -405 -196
-107 17 -155 44 -250 140 -72 73 -93 102 -137 191 -77 156 -104 249 -123 420
-21 191 -10 437 26 585 61 246 196 460 344 544 104 59 261 66 365 15z m2480
15 c77 -29 144 -85 199 -167 25 -38 46 -73 46 -76 0 -4 11 -32 25 -63 48 -103
47 -104 -97 -236 -70 -65 -129 -117 -132 -117 -2 0 -6 10 -10 23 -10 40 -65
117 -98 137 -68 41 -163 13 -209 -62 -57 -93 -64 -133 -64 -378 0 -205 2 -231
22 -295 37 -117 101 -175 193 -175 71 0 128 35 144 88 7 21 6 22 -68 22 l-76
0 0 220 0 220 225 0 225 0 0 -510 0 -510 -110 0 -110 0 -6 40 -6 39 -47 -39
c-67 -56 -109 -70 -210 -70 -101 0 -162 17 -236 66 -65 43 -74 51 -116 104
-153 191 -221 514 -198 937 19 342 173 662 374 776 90 52 241 63 340 26z
m-5656 -39 c193 -58 271 -202 271 -500 0 -161 -13 -241 -54 -335 l-24 -53 25
-24 c66 -62 109 -180 118 -332 6 -86 -3 -219 -19 -291 -29 -135 -123 -250
-235 -287 -24 -8 -138 -13 -333 -15 l-298 -4 0 930 0 931 243 0 c211 0 250 -3
306 -20z m801 -685 l0 -705 225 0 225 0 1 -187 c1 -194 3 -198 34 -53 18 87
87 431 125 625 6 33 39 195 72 360 33 165 66 329 73 365 7 36 23 118 35 183
l23 117 193 0 c219 0 195 12 218 -106 19 -97 71 -347 101 -489 14 -66 32 -151
40 -190 20 -95 82 -394 99 -470 2 -11 16 -76 30 -145 14 -69 37 -179 51 -245
14 -66 27 -129 29 -140 2 -11 7 -32 11 -47 l7 -28 -201 0 c-200 0 -201 0 -205
23 -5 20 -9 52 -36 252 -5 39 -12 84 -15 100 l-5 30 -110 -2 c-61 -1 -114 -4
-119 -7 -5 -3 -11 -29 -14 -58 -9 -88 -36 -285 -43 -312 l-6 -26 -584 0 -584
0 0 930 0 930 165 0 165 0 0 -705z m3122 459 l3 -245 29 68 c16 37 37 86 47
108 10 22 45 101 77 175 l58 135 197 3 c112 1 197 -1 197 -7 0 -9 -22 -64 -50
-126 -58 -128 -80 -177 -80 -181 0 -5 -16 -42 -76 -172 -19 -41 -34 -76 -34
-78 0 -3 -12 -31 -26 -62 -26 -57 -46 -103 -49 -112 -1 -3 -9 -23 -19 -45
l-17 -39 56 -136 c31 -74 67 -159 81 -188 13 -29 24 -54 24 -57 0 -2 14 -33
30 -68 17 -36 30 -68 30 -71 0 -3 16 -40 35 -82 19 -41 35 -78 35 -80 0 -5 13
-36 55 -129 7 -16 24 -57 38 -90 14 -33 32 -77 41 -97 l16 -38 -203 0 -204 0
-16 38 c-15 35 -61 135 -142 307 -20 44 -50 107 -65 140 l-28 60 -18 -40 c-16
-35 -19 -71 -22 -272 l-3 -233 -165 0 -164 0 0 930 0 930 165 0 165 0 2 -246z
m2550 139 c39 -159 135 -514 141 -519 1 -2 20 58 42 134 21 75 44 157 52 182
7 25 29 101 48 169 19 68 38 127 41 132 7 12 394 12 394 0 0 -5 -13 -45 -29
-88 -16 -43 -62 -166 -101 -273 -39 -107 -84 -229 -100 -270 -16 -41 -63 -167
-104 -279 l-76 -203 0 -369 0 -369 -165 0 -165 0 0 374 c0 376 -1 392 -37 476
-3 8 -7 20 -9 25 -1 6 -16 48 -34 95 -18 47 -41 110 -52 140 -12 30 -24 64
-29 75 -4 11 -44 119 -89 240 -121 328 -121 328 -130 350 -5 11 -13 35 -19 53
l-10 32 202 0 203 0 26 -107z m1337 45 c6 -35 16 -92 21 -128 6 -36 18 -108
26 -160 8 -52 19 -122 24 -155 6 -33 11 -69 14 -80 2 -11 13 -83 25 -160 12
-77 26 -160 31 -185 5 -25 14 -80 20 -123 14 -109 25 -125 36 -51 10 74 11 78
23 144 41 223 78 434 112 630 5 30 11 66 14 80 3 14 8 41 11 60 3 19 12 67 20
107 8 40 14 75 14 78 0 3 117 5 260 5 l260 0 0 -930 0 -930 -165 0 -165 0 -1
538 c0 329 -4 528 -9 515 -5 -13 -16 -60 -25 -105 -8 -46 -22 -117 -30 -158
-9 -41 -22 -109 -30 -150 -13 -65 -21 -107 -40 -195 -2 -11 -9 -45 -15 -75
-16 -75 -35 -169 -54 -268 -8 -45 -18 -87 -21 -92 -4 -6 -78 -10 -179 -10
l-173 0 -22 113 c-25 129 -28 146 -42 207 -5 25 -16 81 -24 125 -26 136 -49
253 -105 530 l-19 90 0 -533 -1 -532 -167 2 -168 3 0 920 c0 506 1 923 3 928
2 4 122 7 266 7 l264 0 11 -62z"/>
<path d="M3100 3435 l0 -185 25 0 c89 0 134 84 135 191 0 126 -35 179 -117
179 l-43 0 0 -185z"/>
<path d="M3100 2700 l0 -191 72 2 c65 2 75 5 106 33 40 37 56 101 46 181 -14
110 -72 165 -174 165 l-50 0 0 -190z"/>
<path d="M5117 3273 c-4 -32 -11 -92 -17 -133 -5 -41 -12 -90 -14 -107 l-5
-33 50 0 c58 0 56 -13 29 170 -11 74 -20 141 -20 148 0 6 -4 12 -9 12 -4 0
-11 -26 -14 -57z"/>
</g>
</svg>
